<svg width="25" height="24" viewBox="0 0 25 24" fill="none" xmlns="http://www.w3.org/2000/svg">
<path d="M9.5 11.0002C11.7091 11.0002 13.5 9.20932 13.5 7.00018C13.5 4.79104 11.7091 3.00018 9.5 3.00018C7.29086 3.00018 5.5 4.79104 5.5 7.00018C5.5 9.20932 7.29086 11.0002 9.5 11.0002Z" stroke="#B5BBC4" stroke-width="2.0025" stroke-linecap="round" stroke-linejoin="round"/>
<path d="M3.21948 21.2116V19.2174C3.21948 18.1596 3.6588 17.1451 4.44078 16.3971C5.22277 15.6491 6.28337 15.2289 7.38926 15.2289H11.559C12.6649 15.2289 13.7255 15.6491 14.5075 16.3971C15.2895 17.1451 15.7288 18.1596 15.7288 19.2174V21.2116" stroke="#B5BBC4" stroke-width="2.0025" stroke-linecap="round" stroke-linejoin="round"/>
<path d="M16.4999 3.13034C17.3603 3.35064 18.1229 3.85104 18.6675 4.55265C19.2121 5.25426 19.5077 6.11717 19.5077 7.00534C19.5077 7.89351 19.2121 8.75642 18.6675 9.45803C18.1229 10.1596 17.3603 10.66 16.4999 10.8803" stroke="#B5BBC4" stroke-width="2.0025" stroke-linecap="round" stroke-linejoin="round"/>
<path d="M21.5 21.0002V19.0002C21.4949 18.1174 21.1979 17.261 20.6553 16.5646C20.1126 15.8682 19.3548 15.3709 18.5 15.1502" stroke="#B5BBC4" stroke-width="2.0025" stroke-linecap="round" stroke-linejoin="round"/>
</svg>
