<svg width="25" height="24" viewBox="0 0 25 24" fill="none" xmlns="http://www.w3.org/2000/svg">
<path d="M8.39904 4.00049H6.39905C5.29448 4.00049 4.39905 4.89592 4.39905 6.00049V7.00049C4.39905 8.10506 5.29448 9.00049 6.39905 9.00049H8.39904C9.50361 9.00049 10.399 8.10506 10.399 7.00049V6.00049C10.399 4.89592 9.50361 4.00049 8.39904 4.00049Z" stroke="#B5BBC3" stroke-width="2" stroke-linecap="round" stroke-linejoin="round"/>
<path d="M8.39904 13.0005H6.39905C5.29448 13.0005 4.39905 13.8959 4.39905 15.0005V18.0005C4.39905 19.1051 5.29448 20.0005 6.39905 20.0005H8.39904C9.50361 20.0005 10.399 19.1051 10.399 18.0005V15.0005C10.399 13.8959 9.50361 13.0005 8.39904 13.0005Z" stroke="#B5BBC3" stroke-width="2" stroke-linecap="round" stroke-linejoin="round"/>
<path d="M18.401 4.00049H16.401C15.2964 4.00049 14.401 4.89592 14.401 6.00049V18.0005C14.401 19.1051 15.2964 20.0005 16.401 20.0005H18.401C19.5056 20.0005 20.401 19.1051 20.401 18.0005V6.00049C20.401 4.89592 19.5056 4.00049 18.401 4.00049Z" stroke="#B5BBC3" stroke-width="2" stroke-linecap="round" stroke-linejoin="round"/>
</svg>
