<svg width="70" height="70" viewBox="0 0 70 70" fill="none" xmlns="http://www.w3.org/2000/svg">
<path d="M31.6882 3.16485C37.8411 9.16215 44.1315 18.7165 38.5851 35.0544C33.795 49.1642 27.7797 44.3461 29.238 38.2879C30.2205 34.2063 34.0479 29.2149 42.1709 30.8615C45.4503 31.5263 49.1113 29.6628 50.4422 26.5927C52.105 22.7568 54.9853 19.0839 59.5749 18.6973" stroke="white" stroke-width="1.99846" stroke-linecap="round"/>
<path d="M52.4869 35.3295C54.4407 35.3295 56.0245 36.9224 56.0245 38.8875C56.0245 40.8525 54.4407 42.4455 52.4869 42.4455C50.5331 42.4455 48.9492 40.8525 48.9492 38.8875C48.9492 36.9224 50.5331 35.3295 52.4869 35.3295Z" fill="#F2F6E7"/>
<path d="M52.3867 8.24115V17.1246" stroke="#D35F2D" stroke-width="1.87313" stroke-linecap="square"/>
<path d="M56.0254 10.1349L48.7485 15.2303" stroke="#D35F2D" stroke-width="1.87313" stroke-linecap="square"/>
<path d="M48.748 10.1349L56.025 15.2303" stroke="#D35F2D" stroke-width="1.87313" stroke-linecap="square"/>
<circle cx="28.7334" cy="14.5079" r="2.62797" fill="#F9B533"/>
<path d="M12.9905 66.8171C10.3694 67.9734 7.47951 65.8587 7.78868 63.0106L11.283 30.8212C11.5922 27.9731 14.8685 26.5278 17.1804 28.2195L43.3101 47.3404C45.6221 49.0322 45.2356 52.5923 42.6145 53.7486L12.9905 66.8171Z" fill="#7DA50E"/>
</svg>
