<svg width="32" height="32" viewBox="0 0 32 32" fill="none" xmlns="http://www.w3.org/2000/svg">
<rect x="9.33203" y="9.33331" width="13.3333" height="13.3333" fill="white"/>
<path d="M16 4.00003C12.8174 4.00003 9.76534 5.2643 7.51471 7.51474C5.26432 9.76532 4 12.8178 4 16C4 19.1823 5.26427 22.2347 7.51471 24.4853C9.76529 26.7357 12.8178 28 16 28C19.1822 28 22.2347 26.7358 24.4853 24.4853C26.7357 22.2347 28 19.1823 28 16C27.9966 12.8184 26.7313 9.76831 24.4815 7.51866C22.2318 5.26881 19.1813 4.00356 16.0001 4.00013L16 4.00003ZM20.8917 13.606L14.8916 19.606C14.7309 19.7667 14.513 19.8571 14.2857 19.8571C14.0584 19.8571 13.8405 19.7667 13.6798 19.606L11.1083 17.0346C10.898 16.8169 10.8181 16.5044 10.898 16.2125C10.9782 15.9207 11.2063 15.6926 11.4981 15.6125C11.79 15.5325 12.1025 15.6125 12.3202 15.8227L14.2857 17.788L19.6799 12.3939V12.3941C19.8976 12.1838 20.21 12.1038 20.502 12.1838C20.7938 12.264 21.0218 12.492 21.102 12.7838C21.182 13.0758 21.102 13.3882 20.8917 13.6059L20.8917 13.606Z" fill="#8CB910"/>
</svg>
