<svg width="48" height="48" viewBox="0 0 48 48" fill="none" xmlns="http://www.w3.org/2000/svg">
<path d="M10.0061 40H37.9506C38.602 39.9954 39.2423 39.8316 39.8157 39.5227C40.3892 39.2138 40.8783 38.7693 41.2405 38.228C41.6027 37.6867 41.827 37.0649 41.8937 36.417C41.9604 35.7691 41.8676 35.1147 41.6234 34.5109L27.4515 10.0594C27.1062 9.43545 26.6002 8.91535 25.9859 8.55318C25.3716 8.19101 24.6715 8 23.9584 8C23.2453 8 22.5452 8.19101 21.9309 8.55318C21.3166 8.91535 20.8106 9.43545 20.4653 10.0594L6.29347 34.5109C6.05383 35.1009 5.9588 35.7396 6.01632 36.3738C6.07384 37.008 6.28224 37.6192 6.62412 38.1565C6.96599 38.6937 7.43143 39.1414 7.98157 39.4621C8.53171 39.7828 9.15059 39.9672 9.78654 40" fill="#F0AF30"/>
<path d="M23.9785 20.0396V24.0316M23.9785 32.0158V32.0357" stroke="white" stroke-width="4" stroke-linecap="round" stroke-linejoin="round"/>
</svg>
